<svg id="Layer_1" data-name="Layer 1" xmlns="http://www.w3.org/2000/svg" viewBox="0 0 500 500"><title>Artboard 2</title><path d="M100.33,137.75h37.42v224.5H100.33V137.75m56.13,0h18.71v224.5H156.46V137.75m37.41,0H250v224.5H193.87V137.75m74.84,0h18.71v224.5H268.71V137.75m56.12,0h37.42v224.5H324.83V137.75m56.13,0h18.71v224.5H381V137.75m-318-37.42v74.84H25.5V100.33A37.42,37.42,0,0,1,62.92,62.92h74.83v37.41H62.92M437.08,62.92a37.42,37.42,0,0,1,37.42,37.41v74.84H437.08V100.33H362.25V62.92h74.83M62.92,324.83v74.84h74.83v37.41H62.92A37.42,37.42,0,0,1,25.5,399.67V324.83H62.92m374.16,74.84V324.83H474.5v74.84a37.42,37.42,0,0,1-37.42,37.41H362.25V399.67Zm0,0"/></svg>