<svg id="Layer_1" data-name="Layer 1" xmlns="http://www.w3.org/2000/svg" viewBox="0 0 500 500"><title>Artboard 1</title><path d="M158.61,278.13A91.41,91.41,0,1,0,250,186.73a91.41,91.41,0,0,0-91.41,91.4ZM446.89,123.44H348.45c-7-28.13-14.07-56.25-42.19-56.25H193.76c-28.13,0-35.16,28.12-42.19,56.25H53.12A28.2,28.2,0,0,0,25,151.56V404.69a28.2,28.2,0,0,0,28.12,28.12H446.88A28.2,28.2,0,0,0,475,404.69V151.56a28.2,28.2,0,0,0-28.12-28.12ZM250,402.93a124.8,124.8,0,1,1,124.8-124.8A124.79,124.79,0,0,1,250,402.93ZM446.89,207.81H390.64V179.69h56.25Zm0,0"/></svg>