<svg id="Layer_1" data-name="Layer 1" xmlns="http://www.w3.org/2000/svg" viewBox="0 0 500 500"><title>Artboard 5</title><path d="M428.83,233.9q10.2-10.28,20.41-20.53c1.53-1.53,1.39-2.85-.11-4.25-1-.91-1.88-1.9-2.83-2.84L309.93,69.9c-4.73-4.73-4.72-4.71-9.67.15A92.33,92.33,0,0,1,293,76.92c-4.66,3.67-9.65,3.26-13.5-.76-3.6-3.76-3.51-9.23.57-13.5,5.3-5.55,10.82-10.91,16.29-16.3,6.56-6.46,11-6.49,17.46,0q46.26,46.2,92.46,92.44,31.53,31.53,63.05,63.06c7.4,7.41,7.4,11.53,0,19-11.91,11.94-23.69,24-35.86,35.69a18.09,18.09,0,0,0-6.06,14.38c.22,57.27.13,114.55.13,171.82,0,12.66-3.09,15.8-15.6,15.81H39.7c-11.61,0-14.56-2.94-14.56-14.45q0-109,0-217.91c0-10.76,2.88-13.63,13.68-13.63,28.22,0,56.44-.1,84.66.08A14.49,14.49,0,0,0,134.9,208q48.87-49.24,98-98.18a44.21,44.21,0,0,1,4.79-4.4c3.65-2.67,7.44-2.73,11.09.09A9.35,9.35,0,0,1,251.9,117c-1.09,2.52-3.05,4.35-4.94,6.24l-84.3,84.31c-1.27,1.27-2.46,2.61-3.73,4,1.54,1.49,3.12.91,4.52.92,15.2.05,30.39-.09,45.59.11a12.31,12.31,0,0,0,9.65-4.09q36.3-36.65,72.81-73.11a21.13,21.13,0,0,1,5.83-4.68c4.32-2,8.18-1.34,11.32,2.22s3.6,7.49.91,11.48a30.61,30.61,0,0,1-3.95,4.5q-29.39,29.43-58.82,58.78a28.57,28.57,0,0,1-4.47,3l1.19,1.71c8.77,0,17.55,0,26.32,0,2.45,0,3.74-2,5.25-3.53q22.69-22.63,45.37-45.31a24.37,24.37,0,0,1,5-4.12c4.11-2.31,8.2-1.77,11.47,1.57a9,9,0,0,1,1.41,11.5,23.9,23.9,0,0,1-3.82,4.6Q319.28,192.36,304,207.55c-1.28,1.27-2.49,2.61-4.72,4.95h14.91c5.34,0,10.7-.17,16,.15s8.89,4,9.2,8.85c.34,5.41-2.52,9.09-8.23,10.13a41.3,41.3,0,0,1-7.47.41q-135.51,0-271,0c-8.08,0-8.09,0-8.09,7.81V431.73c0,7.2,0,7.21,7.13,7.21H400.9c7,0,7.05,0,7.05-7.2q0-96.44,0-192.87c0-6.8,0-6.74-7-6.84-3.82-.05-7.68.47-11.47-.51-5.35-1.39-7.74-4.41-7.62-9.61.11-4.69,3.33-8.88,8.26-9.09,9.49-.42,19-.44,28.52,0,5.19.23,8.44,4.65,8.77,10.54.18,3.29,0,6.6,0,9.91Z"/><path d="M305.81,321.3c13.68,0,27.36,0,41,0a10.73,10.73,0,0,1,6.3,1.47,7.26,7.26,0,0,1-.76,12.49,13.5,13.5,0,0,1-6.39,1.2q-40.67,0-81.32,0a22.46,22.46,0,0,1-2.32-.05c-4.92-.47-8.08-3.6-7.92-7.81.17-4.41,3.25-7.21,8.39-7.24C277.16,321.25,291.48,321.3,305.81,321.3Z"/><path d="M305.2,367.49q-21.1,0-42.21,0c-3.46,0-6.32-1.15-7.87-4.54a6.93,6.93,0,0,1,1-7.63c2-2.56,5-3,8.06-3h80.92c1.16,0,2.33-.05,3.48.05,4.74.44,7.83,3.43,7.83,7.51s-3.08,7.12-7.81,7.52c-1.41.12-2.84.05-4.26.05Z"/><path d="M305.81,290.28H348c3.3,0,6.06,1,7.61,4.25a7,7,0,0,1-.89,7.65c-1.94,2.67-5,3.09-8,3.13-6.32.08-12.64,0-19,0q-30.78,0-61.54,0a26.82,26.82,0,0,1-5.38-.41c-4.39-.92-6.76-3.93-6.4-7.85s3.17-6.61,7.61-6.74c5.16-.14,10.32-.05,15.48-.05Z"/><path d="M261.24,133.18c3.74,0,7.49,3.88,7.39,7.58a8.08,8.08,0,0,1-7.63,7.37,7.67,7.67,0,0,1-7.31-7.56A7.89,7.89,0,0,1,261.24,133.18Z"/><path d="M238.4,336.24a7.42,7.42,0,1,1,.51-14.84c3.92.2,7.4,3.88,7.26,7.66A8,8,0,0,1,238.4,336.24Z"/><path d="M342.37,241.16a7.88,7.88,0,0,1-7.33,7.6c-3.71.11-7.56-3.6-7.62-7.34a7.9,7.9,0,0,1,7.37-7.55A7.68,7.68,0,0,1,342.37,241.16Z"/><path d="M246.17,360.11a8,8,0,0,1-7.69,7.26,7.65,7.65,0,0,1-7.26-7.6,7.78,7.78,0,0,1,7.62-7.29C242.61,352.58,246.3,356.41,246.17,360.11Z"/><path d="M246.13,297.72a7.85,7.85,0,0,1-7.55,7.34,7.68,7.68,0,0,1-7.34-7.48,7.45,7.45,0,0,1,14.89.14Z"/><path d="M157.41,339.35V305.14c0-1.75,0-1.75-1.77-1.75H129.8a4.56,4.56,0,0,1-.74,0c-.45-.07-1.12.26-1.28-.36s.5-.69.86-.93q14.22-9.61,28.45-19.2a3,3,0,0,1,1.73-.51q18.41,0,36.79,0c2.76,0,4.63,1.61,4.52,4.57-.15,4.05,0,8.12,0,12.18,0,2.87-1.35,4.25-4.2,4.26H178.05c-1.85,0-1.85,0-1.85,1.9q0,28.43,0,56.85a2.72,2.72,0,0,1-1.44,2.66c-5.15,3.22-10.23,6.54-15.34,9.8-.53.34-1.07,1-1.71.68s-.32-1.13-.32-1.73Q157.41,356.45,157.41,339.35Z"/></svg>