<svg id="Layer_1" data-name="Layer 1" xmlns="http://www.w3.org/2000/svg" viewBox="0 0 500 500"><title>Artboard 4</title><path d="M460.51,182.23a7.92,7.92,0,0,0-2.21-5.94,7.51,7.51,0,0,0-2.73-4L253.17,28.81a8.32,8.32,0,0,0-4.63-1.53L133.57,25a8.28,8.28,0,0,0-5,15l52.54,37.24L156,95.39a9,9,0,0,0-2.62,1.21L43,176.19a8.27,8.27,0,0,0-3.4,6.78v.1l-.56.29V323.21L42.62,330,245,473.46l.34-.19a12.07,12.07,0,0,0,1.09.83,8.48,8.48,0,0,0,3.83.9,8.12,8.12,0,0,0,4.78-1.54L457.41,330a8.25,8.25,0,0,0,3.51-6.8V183.36c0-.43-.36-.72-.41-1.13M160.11,42.06l85.54,1.72L424,170.26l-85.54-1.69Zm81.37,408.63L55.65,318.9V199.38L241.47,331.11V450.69Zm8.77-134.45L62.11,182.83l90.3-65.12L340.54,251.14Zm194.09,2.66L258.54,450.64V331.13l185.8-131.75ZM215.26,340.1"/></svg>