<svg id="Layer_1" data-name="Layer 1" xmlns="http://www.w3.org/2000/svg" viewBox="0 0 500 500"><title>Artboard 3</title><path d="M221.45,293.84q0-37.79,0-75.59c0-3.86,0-3.87-3.92-3.87h-57.1a11.08,11.08,0,0,1-1.63,0c-1-.16-2.48.57-2.83-.82-.26-1.08,1.11-1.52,1.9-2.05q31.44-21.23,62.88-42.43a6.55,6.55,0,0,1,3.83-1.12q40.65,0,81.3,0c6.1,0,10.23,3.55,10,10.1-.32,9-.07,17.94-.08,26.91,0,6.36-3,9.4-9.29,9.41-13.14,0-26.29,0-39.43,0-4.07,0-4.08,0-4.08,4.2q0,62.82.06,125.63a6,6,0,0,1-3.18,5.89c-11.38,7.11-22.6,14.45-33.91,21.67-1.16.73-2.35,2.3-3.77,1.49-1.25-.72-.71-2.5-.71-3.82Q221.43,331.64,221.45,293.84Z"/><path d="M432.25,269.36A183.27,183.27,0,1,1,230.64,67.74c10.1,106.64,95,191.52,201.61,201.61ZM394.83,220A183.7,183.7,0,0,1,280,105.15L394.85,220ZM474,250a20.37,20.37,0,0,0-6-14.4L264.4,32A20.37,20.37,0,0,0,250,26C126.29,26,26,126.29,26,250S126.29,474,250,474,474,373.71,474,250Zm0,0"/></svg>